<svg xmlns="http://www.w3.org/2000/svg"  viewBox="0 0 100 100" width="100px" height="100px"><path fill="#fec933" d="M84.975,29.169H15c-0.185,14.692,0.66,30.296,2.272,46.58C17.792,81.005,22.237,85,27.518,85h44.938	c5.281,0,9.726-3.995,10.246-9.251C84.315,59.465,85.16,43.861,84.975,29.169z"/><path fill="#fec933" d="M88,27.255c0,2.099-1.644,3.827-3.74,3.923c-7.318,0.336-23.73,1.028-34.26,1.017 c-8.858-0.01-26.523-0.709-34.243-1.033C13.653,31.073,12,29.343,12,27.238v-8.482c0-2.103,1.649-3.832,3.749-3.923 c7.565-0.329,24.744-1.027,34.251-1.027c10.924,0,27.038,0.682,34.26,1.015c2.096,0.097,3.74,1.824,3.74,3.923V27.255z"/><path fill="#4a254b" d="M50.263,33.073c-0.088,0-0.176,0-0.264,0c-8.229-0.01-23.836-0.595-32.406-0.941 c-0.275-0.012-0.49-0.244-0.479-0.521c0.012-0.275,0.258-0.467,0.521-0.479c8.562,0.348,24.154,0.932,32.367,0.941 c0.086,0,0.175,0,0.263,0c11.115,0,28.42-0.738,35.385-1.058c0.268-0.033,0.51,0.2,0.521,0.477c0.013,0.275-0.2,0.509-0.477,0.521 C78.723,32.334,61.399,33.073,50.263,33.073z"/><path fill="#4a254b" d="M50,69.04c3.618,0,6.599-2.73,6.995-6.242C57.043,62.376,56.738,62,56.315,62c-2.42,0-10.204,0-12.627,0 c-0.425,0-0.73,0.377-0.682,0.8C43.402,66.311,46.382,69.04,50,69.04z"/><circle cx="33.511" cy="55.499" r="6.499" fill="#fff"/><circle cx="33.511" cy="55.499" r="2.664" fill="#4a254b"/><circle cx="66.489" cy="55.499" r="6.499" fill="#fff"/><circle cx="66.489" cy="55.499" r="2.664" fill="#4a254b"/></svg>